<svg width="173" height="51" viewBox="0 0 173 51" fill="none" xmlns="http://www.w3.org/2000/svg">
<path d="M71.304 0.619998H81.636C84.444 0.619998 86.856 1.124 88.872 2.132C90.912 3.14 92.472 4.604 93.552 6.524C94.632 8.42 95.172 10.676 95.172 13.292C95.172 15.932 94.632 18.212 93.552 20.132C92.496 22.028 90.948 23.48 88.908 24.488C86.892 25.496 84.468 26 81.636 26H71.304V0.619998ZM81.168 20.672C83.664 20.672 85.524 20.06 86.748 18.836C87.972 17.612 88.584 15.764 88.584 13.292C88.584 10.82 87.972 8.984 86.748 7.784C85.524 6.56 83.664 5.948 81.168 5.948H77.928V20.672H81.168ZM111.028 26.324C108.436 26.324 106.18 25.796 104.26 24.74C102.364 23.66 100.9 22.148 99.8677 20.204C98.8357 18.236 98.3197 15.932 98.3197 13.292C98.3197 10.652 98.8357 8.36 99.8677 6.416C100.9 4.448 102.364 2.936 104.26 1.88C106.18 0.823999 108.436 0.295998 111.028 0.295998C113.62 0.295998 115.864 0.823999 117.76 1.88C119.68 2.936 121.144 4.448 122.152 6.416C123.184 8.36 123.7 10.652 123.7 13.292C123.7 15.932 123.184 18.236 122.152 20.204C121.12 22.148 119.644 23.66 117.724 24.74C115.828 25.796 113.596 26.324 111.028 26.324ZM111.028 21.248C112.948 21.248 114.448 20.576 115.528 19.232C116.608 17.864 117.148 15.884 117.148 13.292C117.148 10.7 116.596 8.732 115.492 7.388C114.412 6.044 112.924 5.372 111.028 5.372C109.108 5.372 107.608 6.044 106.528 7.388C105.448 8.708 104.908 10.676 104.908 13.292C104.908 15.908 105.448 17.888 106.528 19.232C107.608 20.576 109.108 21.248 111.028 21.248ZM149.904 11.672V24.38C148.584 25.004 147.084 25.484 145.404 25.82C143.724 26.156 142.008 26.324 140.256 26.324C137.496 26.324 135.096 25.808 133.056 24.776C131.04 23.72 129.492 22.22 128.412 20.276C127.332 18.308 126.792 15.98 126.792 13.292C126.792 10.676 127.332 8.384 128.412 6.416C129.492 4.448 131.016 2.936 132.984 1.88C134.976 0.823999 137.304 0.295998 139.968 0.295998C141.816 0.295998 143.544 0.535999 145.152 1.016C146.784 1.496 148.104 2.156 149.112 2.996L147.06 7.676C145.884 6.908 144.756 6.356 143.676 6.02C142.596 5.684 141.444 5.516 140.22 5.516C137.94 5.516 136.236 6.152 135.108 7.424C134.004 8.696 133.452 10.652 133.452 13.292C133.452 16.004 134.028 18.02 135.18 19.34C136.356 20.636 138.144 21.284 140.544 21.284C141.696 21.284 142.836 21.164 143.964 20.924V16.208H139.5V11.672H149.904ZM87.36 31.08L79.656 48H76.152L68.448 31.08H73.032L77.952 42.504L82.896 31.08H87.36ZM88.2519 31.08H100.276V34.488H92.5479V37.704H99.7959V41.088H92.5479V44.592H100.276V48H88.2519V31.08ZM108.338 48.216C107.074 48.216 105.826 48.048 104.594 47.712C103.362 47.376 102.362 46.928 101.594 46.368L102.962 43.248C103.778 43.76 104.65 44.152 105.578 44.424C106.506 44.696 107.442 44.832 108.386 44.832C109.346 44.832 110.074 44.704 110.57 44.448C111.082 44.176 111.338 43.8 111.338 43.32C111.338 42.888 111.106 42.536 110.642 42.264C110.194 41.992 109.33 41.72 108.05 41.448C106.466 41.112 105.226 40.712 104.33 40.248C103.434 39.784 102.802 39.24 102.434 38.616C102.082 37.992 101.906 37.224 101.906 36.312C101.906 35.272 102.194 34.344 102.77 33.528C103.362 32.696 104.186 32.048 105.242 31.584C106.314 31.104 107.538 30.864 108.914 30.864C110.13 30.864 111.306 31.04 112.442 31.392C113.594 31.728 114.49 32.168 115.13 32.712L113.786 35.832C112.25 34.776 110.634 34.248 108.938 34.248C108.122 34.248 107.466 34.408 106.97 34.728C106.474 35.032 106.226 35.44 106.226 35.952C106.226 36.256 106.314 36.504 106.49 36.696C106.666 36.888 106.994 37.08 107.474 37.272C107.954 37.448 108.666 37.632 109.61 37.824C111.146 38.16 112.354 38.568 113.234 39.048C114.114 39.512 114.738 40.056 115.106 40.68C115.474 41.304 115.658 42.048 115.658 42.912C115.658 44.576 115.018 45.88 113.738 46.824C112.458 47.752 110.658 48.216 108.338 48.216ZM133.011 38.448V46.92C132.131 47.336 131.131 47.656 130.011 47.88C128.891 48.104 127.747 48.216 126.579 48.216C124.739 48.216 123.139 47.872 121.779 47.184C120.435 46.48 119.403 45.48 118.683 44.184C117.963 42.872 117.603 41.32 117.603 39.528C117.603 37.784 117.963 36.256 118.683 34.944C119.403 33.632 120.419 32.624 121.731 31.92C123.059 31.216 124.611 30.864 126.387 30.864C127.619 30.864 128.771 31.024 129.843 31.344C130.931 31.664 131.811 32.104 132.483 32.664L131.115 35.784C130.331 35.272 129.579 34.904 128.859 34.68C128.139 34.456 127.371 34.344 126.555 34.344C125.035 34.344 123.899 34.768 123.147 35.616C122.411 36.464 122.043 37.768 122.043 39.528C122.043 41.336 122.427 42.68 123.195 43.56C123.979 44.424 125.171 44.856 126.771 44.856C127.539 44.856 128.299 44.776 129.051 44.616V41.472H126.075V38.448H133.011ZM143.815 48.216C142.087 48.216 140.583 47.864 139.303 47.16C138.039 46.44 137.063 45.432 136.375 44.136C135.687 42.824 135.343 41.288 135.343 39.528C135.343 37.768 135.687 36.24 136.375 34.944C137.063 33.632 138.039 32.624 139.303 31.92C140.583 31.216 142.087 30.864 143.815 30.864C145.543 30.864 147.039 31.216 148.303 31.92C149.583 32.624 150.559 33.632 151.231 34.944C151.919 36.24 152.263 37.768 152.263 39.528C152.263 41.288 151.919 42.824 151.231 44.136C150.543 45.432 149.559 46.44 148.279 47.16C147.015 47.864 145.527 48.216 143.815 48.216ZM143.815 44.832C145.095 44.832 146.095 44.384 146.815 43.488C147.535 42.576 147.895 41.256 147.895 39.528C147.895 37.8 147.527 36.488 146.791 35.592C146.071 34.696 145.079 34.248 143.815 34.248C142.535 34.248 141.535 34.696 140.815 35.592C140.095 36.472 139.735 37.784 139.735 39.528C139.735 41.272 140.095 42.592 140.815 43.488C141.535 44.384 142.535 44.832 143.815 44.832Z" fill="black"/>
<path d="M53.5315 10.4682C51.5401 7.68771 49.0215 5.34552 46.4018 3.84456C43.3082 2.07219 40.2095 1.55521 37.6769 2.38856C36.0092 2.93705 34.743 4.00722 33.9502 5.5149C31.3476 5.01216 28.6684 5.00101 26.0558 5.48499C25.2606 3.99323 23.9996 2.93333 22.3447 2.38892C19.8296 1.56087 16.7526 2.06564 13.6801 3.81014C11.0896 5.28083 8.58903 7.58072 6.59947 10.3156C2.62247 11.934 0 15.094 0 18.6576C0 23.1025 4.07546 26.8806 9.64985 27.8741C8.48014 35.4009 8.54496 34.9427 8.54496 35.0627C8.54496 42.2931 20.4718 47.3024 29.932 47.3024C39.3705 47.3024 51.319 42.305 51.319 35.0627C51.319 34.9395 51.3782 35.372 50.2124 27.8573C55.7254 26.8423 59.7746 23.0938 59.7746 18.6576C59.7747 15.2613 57.3965 12.1615 53.5315 10.4682V10.4682ZM3.51627 18.6576C3.51627 16.0503 5.53032 13.6359 8.6474 12.5067C8.98682 12.3837 9.26507 12.1817 9.44099 11.9304C11.2346 9.36964 13.4905 7.23931 15.7934 5.9318C16.9608 5.26906 19.1816 4.24359 20.9399 4.82243C21.8088 5.10827 22.3753 5.72676 22.7455 6.38463C16.3929 8.69124 12.0619 13.3833 11.0165 19.0965C11.009 19.1373 10.6445 21.4766 10.0641 25.211C6.28231 24.3885 3.51627 21.7227 3.51627 18.6576V18.6576ZM29.8874 33.5335L27.2464 31.8582C26.7163 31.5219 26.6815 31.0826 26.8257 30.7838C26.9267 30.5743 27.2153 30.2231 28.0121 30.2231H31.7627C32.5595 30.2231 32.8474 30.5733 32.9482 30.7822C33.0929 31.0819 33.0585 31.522 32.5284 31.8583L29.8874 33.5335ZM31.6455 44.5857V35.8857L34.7902 33.8908C38.1721 31.7455 36.3807 27.5681 31.7627 27.5681C26.6092 27.5681 28.3583 27.5649 27.9857 27.5681C23.3906 27.5849 21.6062 31.7477 24.9846 33.8908L28.1294 35.8857V44.5794C20.4952 44.0174 12.1453 40.023 12.0619 35.1364C14.2688 20.9316 14.4887 19.5254 14.4921 19.4997C15.5421 14.8149 19.4421 10.0919 25.3052 8.41965C25.6478 8.35824 29.525 7.04559 34.3832 8.38328C34.4496 8.40602 34.5191 8.42478 34.5903 8.44142C39.7847 9.94486 43.9068 13.9114 45.2728 19.0972C45.5612 20.6225 45.3584 19.4058 47.8024 35.1364C47.7184 40.0422 39.3037 44.0485 31.6455 44.5857V44.5857ZM49.7996 25.1965C49.5457 23.5602 48.8764 19.1733 48.7314 18.618C47.4101 13.5517 43.4358 8.7292 37.2477 6.43622C37.6172 5.7572 38.1902 5.11535 39.0812 4.82234C40.8557 4.23872 43.0977 5.28411 44.2764 5.95932C46.5933 7.28674 48.8534 9.43902 50.6435 12.0217C50.8073 12.2747 51.0746 12.4836 51.409 12.6154C54.4002 13.7954 56.2585 16.1105 56.2585 18.6574C56.2586 21.7462 53.5794 24.3635 49.7996 25.1965V25.1965Z" fill="black"/>
<path d="M22.7003 17.6103C21.7294 17.6103 20.9423 18.2046 20.9423 18.9377V20.4978C20.9423 21.2308 21.7294 21.8252 22.7003 21.8252C23.6713 21.8252 24.4584 21.2308 24.4584 20.4978V18.9377C24.4584 18.2045 23.6713 17.6103 22.7003 17.6103Z" fill="black"/>
<path d="M21.8203 17.8559C21.3673 17.8559 21 18.1303 21 18.4689V19.1894C21 19.528 21.3673 19.8025 21.8203 19.8025C22.2733 19.8025 22.6406 19.528 22.6406 19.1894V18.4689C22.6406 18.1303 22.2733 17.8559 21.8203 17.8559Z" fill="#FCA728"/>
<path d="M36.1306 17.6103C35.1597 17.6103 34.3726 18.2046 34.3726 18.9377V20.4978C34.3726 21.2308 35.1597 21.8252 36.1306 21.8252C37.1016 21.8252 37.8887 21.2308 37.8887 20.4978V18.9377C37.8887 18.2045 37.1016 17.6103 36.1306 17.6103Z" fill="black"/>
<path d="M36.8203 19.3659C36.3673 19.3659 36 19.6404 36 19.979V20.6995C36 21.038 36.3673 21.3125 36.8203 21.3125C37.2733 21.3125 37.6406 21.038 37.6406 20.6995V19.979C37.6406 19.6404 37.2733 19.3659 36.8203 19.3659Z" fill="#FCA728"/>
</svg>
